<svg width="19" height="19" viewBox="0 0 19 19" fill="none" xmlns="http://www.w3.org/2000/svg">
<path d="M15.1667 6.41055C15.1667 4.97558 14.5696 3.59939 13.5069 2.58471C12.4442 1.57004 11.0029 1 9.5 1C7.99711 1 6.55577 1.57004 5.49306 2.58471C4.43036 3.59939 3.83333 4.97558 3.83333 6.41055C3.83333 12.7228 1 14.5264 1 14.5264H18C18 14.5264 15.1667 12.7228 15.1667 6.41055Z" fill="#3F54C3" stroke="#3F54C3" stroke-width="1.5" stroke-linecap="round" stroke-linejoin="round"/>
<path d="M6.94141 16.8151C6.38738 16.1705 6.08858 15.4927 6.10304 14.6403H7.43789C7.43789 15.1749 8.14341 13.2149 8.14341 14.6403C8.14341 14.6403 9.1432 14.6403 9.67406 14.6403C10.2049 14.6403 10.1053 15.0184 10.4807 14.6403C10.8561 14.2623 11.4411 15.1749 11.4411 14.6403H12.7755C12.775 15.1097 12.6769 15.5737 12.4876 16.0027C12.2983 16.4316 12.0219 16.8159 11.6763 17.1308C11.3306 17.4457 10.9234 17.6842 10.4807 17.8311C10.038 17.9779 9.56971 18.0299 9.1059 17.9835C8.26616 17.8757 7.49544 17.4597 6.94141 16.8151Z" fill="#3F54C3" stroke="#3F54C3" stroke-width="0.3" stroke-linecap="round" stroke-linejoin="round"/>
</svg>
