<svg width="22" height="22" viewBox="0 0 22 22" fill="none" xmlns="http://www.w3.org/2000/svg">
<rect x="0.75" y="0.75" width="20.5" height="20.5" rx="10.25" fill="white" stroke="#D8D8D8" stroke-width="1.5"/>
<path d="M6.61872 10.3813C6.27701 10.0396 5.72299 10.0396 5.38128 10.3813C5.03957 10.723 5.03957 11.277 5.38128 11.6187L6.61872 10.3813ZM10 15L9.38128 15.6187C9.72299 15.9604 10.277 15.9604 10.6187 15.6187L10 15ZM17.6187 8.61872C17.9604 8.27701 17.9604 7.72299 17.6187 7.38128C17.277 7.03957 16.723 7.03957 16.3813 7.38128L17.6187 8.61872ZM5.38128 11.6187L9.38128 15.6187L10.6187 14.3813L6.61872 10.3813L5.38128 11.6187ZM10.6187 15.6187L17.6187 8.61872L16.3813 7.38128L9.38128 14.3813L10.6187 15.6187Z" fill="#D8D8D8"/>
</svg>
