<svg width="16" height="11" viewBox="0 0 16 11" fill="none" xmlns="http://www.w3.org/2000/svg">
<path d="M1.62185 4.24157C1.28188 3.89813 0.727869 3.89532 0.38443 4.23529C0.0409913 4.57526 0.038179 5.12927 0.378149 5.47271L1.62185 4.24157ZM6.09091 10L5.46906 10.6156C5.6334 10.7816 5.85731 10.875 6.09091 10.875C6.32451 10.875 6.54842 10.7816 6.71276 10.6156L6.09091 10ZM15.6219 1.61557C15.9618 1.27213 15.959 0.718119 15.6156 0.378149C15.2721 0.038179 14.7181 0.0409913 14.3781 0.38443L15.6219 1.61557ZM0.378149 5.47271L5.46906 10.6156L6.71276 9.38443L1.62185 4.24157L0.378149 5.47271ZM6.71276 10.6156L15.6219 1.61557L14.3781 0.38443L5.46906 9.38443L6.71276 10.6156Z" fill="#141414"/>
</svg>
