<svg width="24" height="24" viewBox="0 0 24 24" fill="none" xmlns="http://www.w3.org/2000/svg">
<path d="M2.75 12C2.75 6.89137 6.89137 2.75 12 2.75C17.1086 2.75 21.25 6.89137 21.25 12C21.25 17.1086 17.1086 21.25 12 21.25C6.89137 21.25 2.75 17.1086 2.75 12Z" stroke="#141414" stroke-width="1.5"/>
<path fill-rule="evenodd" clip-rule="evenodd" d="M12 17.5C11.5858 17.5 11.25 17.1642 11.25 16.75L11.25 11.75C11.25 11.3358 11.5858 11 12 11C12.4142 11 12.75 11.3358 12.75 11.75L12.75 16.75C12.75 17.1642 12.4142 17.5 12 17.5Z" fill="#141414"/>
<path d="M12 7.25C11.3787 7.25 10.875 7.75368 10.875 8.375C10.875 8.99632 11.3787 9.5 12 9.5C12.6213 9.5 13.125 8.99632 13.125 8.375C13.125 7.75368 12.6213 7.25 12 7.25Z" fill="#141414"/>
</svg>
