<svg width="17" height="17" viewBox="0 0 17 17" fill="none" xmlns="http://www.w3.org/2000/svg">
<path d="M2.16602 8.49996C2.16602 5.00216 5.00155 2.16663 8.49935 2.16663C11.9972 2.16663 14.8327 5.00216 14.8327 8.49996C14.8327 11.9978 11.9972 14.8333 8.49935 14.8333C5.00155 14.8333 2.16602 11.9978 2.16602 8.49996Z" stroke="white" stroke-width="1.5"/>
<path fill-rule="evenodd" clip-rule="evenodd" d="M8.5 12.3959C8.2066 12.3959 7.96875 12.158 7.96875 11.8646L7.96875 8.32296C7.96875 8.02956 8.2066 7.79171 8.5 7.79171C8.7934 7.79171 9.03125 8.02956 9.03125 8.32296L9.03125 11.8646C9.03125 12.158 8.7934 12.3959 8.5 12.3959Z" fill="white"/>
<path d="M8.5 5.13546C8.0599 5.13546 7.70312 5.49223 7.70312 5.93233C7.70312 6.37243 8.0599 6.72921 8.5 6.72921C8.9401 6.72921 9.29687 6.37243 9.29687 5.93233C9.29687 5.49223 8.9401 5.13546 8.5 5.13546Z" fill="white"/>
</svg>
