<svg width="24" height="24" viewBox="0 0 24 24" fill="none" xmlns="http://www.w3.org/2000/svg">
<path d="M17.5529 9.6506C17.5529 8.17781 16.9678 6.76533 15.9264 5.7239C14.885 4.68248 13.4725 4.09741 11.9997 4.09741C10.5269 4.09741 9.11444 4.68248 8.07301 5.7239C7.03158 6.76533 6.44652 8.17781 6.44652 9.6506C6.44652 16.1293 3.66992 17.9804 3.66992 17.9804H20.3295C20.3295 17.9804 17.5529 16.1293 17.5529 9.6506Z" stroke="black" stroke-width="1.5" stroke-linecap="round" stroke-linejoin="round"/>
<path d="M13.6008 19.9805C13.4381 20.261 13.2045 20.4938 12.9235 20.6557C12.6425 20.8175 12.3239 20.9027 11.9996 20.9027C11.6753 20.9027 11.3567 20.8175 11.0757 20.6557C10.7947 20.4938 10.5612 20.261 10.3984 19.9805" stroke="black" stroke-width="1.5" stroke-linecap="round" stroke-linejoin="round"/>
</svg>
