<svg width="24" height="24" viewBox="0 0 24 24" fill="none" xmlns="http://www.w3.org/2000/svg">
<path d="M11.5342 3.6942C11.6997 3.2698 12.3003 3.2698 12.4658 3.6942L14.5047 8.92122C14.5744 9.09981 14.74 9.22285 14.9311 9.23796L20.3327 9.66506C20.7715 9.69976 20.9546 10.2437 20.626 10.5367L16.4583 14.2532C16.3218 14.3748 16.2627 14.5612 16.304 14.7393L17.5915 20.2929C17.6931 20.7311 17.2094 21.0701 16.8321 20.8251L12.2723 17.8641C12.1067 17.7565 11.8933 17.7565 11.7277 17.8641L7.16793 20.8251C6.79061 21.0701 6.30693 20.7311 6.40853 20.2929L7.69605 14.7393C7.73733 14.5612 7.67816 14.3748 7.54174 14.2532L3.37396 10.5367C3.04539 10.2437 3.22846 9.69976 3.66732 9.66506L9.0689 9.23796C9.26 9.22285 9.42564 9.09981 9.4953 8.92122L11.5342 3.6942Z" stroke="black" stroke-width="1.5"/>
</svg>
